SplineFontDB: 3.2
FontName: YuFanXinYu-Medium
FullName: YuFanXinYu-Medium
FamilyName: YuFanXinYu-Medium
Weight: Medium
Copyright: Copyright (c) 2022, YuFan
UComments: "2022-3-2: Created with FontForge (http://fontforge.org)"
Version: 001.000
ItalicAngle: 0
UnderlinePosition: -90
UnderlineWidth: 45
Ascent: 720
Descent: 180
InvalidEm: 0
LayerCount: 2
Layer: 0 0 "+gMxmbwAA" 1
Layer: 1 0 "+Uk1mbwAA" 0
XUID: [1021 811 374436730 30709]
StyleMap: 0x0000
FSType: 0
OS2Version: 3
OS2_WeightWidthSlopeOnly: 0
OS2_UseTypoMetrics: 1
CreationTime: 1646206483
ModificationTime: 1646403748
PfmFamily: 81
TTFWeight: 600
TTFWidth: 5
LineGap: 81
VLineGap: 0
OS2TypoAscent: 0
OS2TypoAOffset: 1
OS2TypoDescent: 0
OS2TypoDOffset: 1
OS2TypoLinegap: 81
OS2WinAscent: 0
OS2WinAOffset: 1
OS2WinDescent: 0
OS2WinDOffset: 1
HheadAscent: 0
HheadAOffset: 1
HheadDescent: 0
HheadDOffset: 1
OS2Vendor: 'PfEd'
OS2CodePages: 00040001.00000000
MarkAttachClasses: 1
DEI: 91125
LangName: 1033 "" "" "Regular" "" "" "" "" "" "YuFan" "" "" "" "" "" "" "" "YuFanXinYu" "Medium"
LangName: 2052 "" "+T1l+QWWwi+0A--Medium" "Regular" "" "+T1l+QWWwi+0A--Medium" "" "" "" "+T1l+QQAA" "" "" "" "" "" "" "" "+T1l+QWWwi+0A" "Medium"
Encoding: UnicodeBmp
UnicodeInterp: none
NameList: AGL For New Fonts
DisplaySize: -48
AntiAlias: 1
FitToEm: 0
WinInfo: 22800 20 10
BeginPrivate: 0
EndPrivate
Grid
-900 1546 m 0
 1800 1546 l 1024
EndSplineSet
BeginChars: 65536 21

StartChar: uni4F59
Encoding: 20313 20313 1
Width: 720
Flags: HW
LayerCount: 2
Fore
SplineSet
677 377 m 2
 686.299804688 367.599609375 686.299804688 352.400390625 677 343 c 0
 672.299804688 338.299804688 666.200195312 336 660 336 c 0
 653.799804688 336 647.700195312 338.299804688 643 343 c 2
 385.400390625 600.700195312 l 2
 371.299804688 614.700195312 348.5 614.700195312 334.5 600.700195312 c 2
 76.900390625 343.099609375 l 2
 67.599609375 333.700195312 52.400390625 333.700195312 43 343.099609375 c 0
 33.599609375 352.400390625 33.599609375 367.599609375 43 377 c 2
 300.700195312 634.599609375 l 2
 333.400390625 667.299804688 386.700195312 667.299804688 419.400390625 634.599609375 c 2
 677 377 l 2
480 216 m 2
 384 216 l 1
 384 -120 l 2
 384 -133.299804688 373.299804688 -144 360 -144 c 0
 346.700195312 -144 336 -133.299804688 336 -120 c 2
 336 216 l 1
 240 216 l 2
 193.700195312 216 156 253.700195312 156 300 c 2
 156 360 l 2
 156 373.299804688 166.700195312 384 180 384 c 0
 193.299804688 384 204 373.299804688 204 360 c 2
 204 300 l 2
 204 280.099609375 220.099609375 264 240 264 c 2
 336 264 l 1
 336 396 l 1
 240 396 l 2
 226.700195312 396 216 406.700195312 216 420 c 0
 216 433.299804688 226.700195312 444 240 444 c 2
 480 444 l 2
 493.299804688 444 504 433.299804688 504 420 c 0
 504 406.700195312 493.299804688 396 480 396 c 2
 384 396 l 1
 384 264 l 1
 480 264 l 2
 499.900390625 264 516 280.099609375 516 300 c 2
 516 360 l 2
 516 373.299804688 526.700195312 384 540 384 c 0
 553.299804688 384 564 373.299804688 564 360 c 2
 564 300 l 2
 564 253.700195312 526.299804688 216 480 216 c 2
120 144 m 0
 199.400390625 144 264 79.400390625 264 0 c 0
 264 -79.400390625 199.400390625 -144 120 -144 c 0
 106.700195312 -144 96 -133.299804688 96 -120 c 0
 96 -106.700195312 106.700195312 -96 120 -96 c 0
 172.900390625 -96 216 -52.900390625 216 0 c 0
 216 52.900390625 172.900390625 96 120 96 c 0
 106.700195312 96 96 106.700195312 96 120 c 0
 96 133.299804688 106.700195312 144 120 144 c 0
600 96 m 0
 547.099609375 96 504 52.900390625 504 0 c 0
 504 -52.900390625 547.099609375 -96 600 -96 c 0
 613.299804688 -96 624 -106.700195312 624 -120 c 0
 624 -133.299804688 613.299804688 -144 600 -144 c 0
 520.599609375 -144 456 -79.400390625 456 0 c 0
 456 79.400390625 520.599609375 144 600 144 c 0
 613.299804688 144 624 133.299804688 624 120 c 0
 624 106.700195312 613.299804688 96 600 96 c 0
EndSplineSet
EndChar

StartChar: uni65B0
Encoding: 26032 26032 2
Width: 720
Flags: HW
LayerCount: 2
Fore
SplineSet
264 480 m 2
 264 442 238.700195312 409.900390625 204 399.5 c 1
 204 327 l 1
 245.400390625 337.700195312 276 375.299804688 276 420 c 0
 276 433.299804688 286.700195312 444 300 444 c 0
 313.299804688 444 324 433.299804688 324 420 c 0
 324 348.799804688 272 289.5 204 278 c 1
 204 204 l 1
 300 204 l 2
 313.299804688 204 324 193.299804688 324 180 c 0
 324 166.700195312 313.299804688 156 300 156 c 2
 204 156 l 1
 204 82 l 1
 272 70.5 324 11.2001953125 324 -60 c 2
 324 -120 l 2
 324 -133.299804688 313.299804688 -144 300 -144 c 0
 286.700195312 -144 276 -133.299804688 276 -120 c 2
 276 -60 l 2
 276 -15.2998046875 245.400390625 22.2998046875 204 33 c 1
 204 -120 l 2
 204 -133.299804688 193.299804688 -144 180 -144 c 0
 166.700195312 -144 156 -133.299804688 156 -120 c 2
 156 33 l 1
 114.599609375 22.2998046875 84 -15.2998046875 84 -60 c 2
 84 -120 l 2
 84 -133.299804688 73.2998046875 -144 60 -144 c 0
 46.7001953125 -144 36 -133.299804688 36 -120 c 2
 36 -60 l 2
 36 11.2001953125 88 70.5 156 82 c 1
 156 156 l 1
 60 156 l 2
 46.7001953125 156 36 166.700195312 36 180 c 0
 36 193.299804688 46.7001953125 204 60 204 c 2
 156 204 l 1
 156 278 l 1
 88 289.5 36 348.799804688 36 420 c 0
 36 433.299804688 46.7001953125 444 60 444 c 0
 73.2998046875 444 84 433.299804688 84 420 c 0
 84 375.299804688 114.599609375 337.700195312 156 327 c 1
 156 399.5 l 1
 121.299804688 409.900390625 96 442 96 480 c 2
 96 576 l 1
 60 576 l 2
 46.7001953125 576 36 586.700195312 36 600 c 0
 36 613.299804688 46.7001953125 624 60 624 c 2
 156 624 l 1
 156 660 l 2
 156 673.299804688 166.700195312 684 180 684 c 0
 193.299804688 684 204 673.299804688 204 660 c 2
 204 624 l 1
 300 624 l 2
 313.299804688 624 324 613.299804688 324 600 c 0
 324 586.700195312 313.299804688 576 300 576 c 2
 264 576 l 1
 264 480 l 2
144 480 m 2
 144 460.099609375 160.099609375 444 180 444 c 0
 199.900390625 444 216 460.099609375 216 480 c 2
 216 576 l 1
 144 576 l 1
 144 480 l 2
660 444 m 2
 673.299804688 444 684 433.299804688 684 420 c 0
 684 406.700195312 673.299804688 396 660 396 c 2
 444 396 l 1
 444 -120 l 2
 444 -133.299804688 433.299804688 -144 420 -144 c 0
 406.700195312 -144 396 -133.299804688 396 -120 c 2
 396 540 l 2
 396 586.299804688 433.700195312 624 480 624 c 2
 600 624 l 2
 619.900390625 624 636 640.099609375 636 660 c 0
 636 673.299804688 646.700195312 684 660 684 c 0
 673.299804688 684 684 673.299804688 684 660 c 0
 684 613.700195312 646.299804688 576 600 576 c 2
 480 576 l 2
 460.099609375 576 444 559.900390625 444 540 c 2
 444 444 l 1
 660 444 l 2
600 324 m 0
 613.299804688 324 624 313.299804688 624 300 c 2
 624 -120 l 2
 624 -133.299804688 613.299804688 -144 600 -144 c 0
 586.700195312 -144 576 -133.299804688 576 -120 c 2
 576 300 l 2
 576 313.299804688 586.700195312 324 600 324 c 0
EndSplineSet
EndChar

StartChar: uni7E41
Encoding: 32321 32321 3
Width: 720
Flags: HW
LayerCount: 2
Fore
SplineSet
202 636 m 1
 190.5 568 131.200195312 516 60 516 c 0
 46.7001953125 516 36 526.700195312 36 540 c 0
 36 553.299804688 46.7001953125 564 60 564 c 0
 112.900390625 564 156 607.099609375 156 660 c 0
 156 673.299804688 166.700195312 684 180 684 c 2
 300 684 l 2
 313.299804688 684 324 673.299804688 324 660 c 0
 324 646.700195312 313.299804688 636 300 636 c 2
 202 636 l 1
480 -36 m 0
 526.299804688 -36 564 -73.7001953125 564 -120 c 0
 564 -133.299804688 553.299804688 -144 540 -144 c 0
 526.700195312 -144 516 -133.299804688 516 -120 c 0
 516 -100.099609375 499.900390625 -84 480 -84 c 0
 466.700195312 -84 456 -73.2998046875 456 -60 c 0
 456 -46.7001953125 466.700195312 -36 480 -36 c 0
240 -36 m 0
 253.299804688 -36 264 -46.7001953125 264 -60 c 0
 264 -73.2998046875 253.299804688 -84 240 -84 c 0
 220.099609375 -84 204 -100.099609375 204 -120 c 0
 204 -133.299804688 193.299804688 -144 180 -144 c 0
 166.700195312 -144 156 -133.299804688 156 -120 c 0
 156 -73.7001953125 193.700195312 -36 240 -36 c 0
540 84 m 2
 553.299804688 84 564 73.2998046875 564 60 c 0
 564 46.7001953125 553.299804688 36 540 36 c 2
 384 36 l 1
 384 -120 l 2
 384 -133.299804688 373.299804688 -144 360 -144 c 0
 346.700195312 -144 336 -133.299804688 336 -120 c 2
 336 36 l 1
 240 36 l 2
 193.700195312 36 156 73.7001953125 156 120 c 0
 156 133.299804688 166.700195312 144 180 144 c 0
 193.299804688 144 204 133.299804688 204 120 c 0
 204 100.099609375 220.099609375 84 240 84 c 2
 336 84 l 1
 336 156 l 1
 240 156 l 2
 193.700195312 156 156 193.700195312 156 240 c 0
 156 253.299804688 166.700195312 264 180 264 c 0
 193.299804688 264 204 253.299804688 204 240 c 0
 204 220.099609375 220.099609375 204 240 204 c 2
 336 204 l 1
 336 240 l 2
 336 253.299804688 346.700195312 264 360 264 c 0
 373.299804688 264 384 253.299804688 384 240 c 2
 384 204 l 1
 480 204 l 2
 493.299804688 204 504 193.299804688 504 180 c 0
 504 166.700195312 493.299804688 156 480 156 c 2
 384 156 l 1
 384 84 l 1
 540 84 l 2
276 336 m 1
 180 336 l 2
 133.700195312 336 96 373.700195312 96 420 c 0
 96 433.299804688 106.700195312 444 120 444 c 0
 133.299804688 444 144 433.299804688 144 420 c 0
 144 400.099609375 160.099609375 384 180 384 c 2
 276 384 l 1
 276 516 l 1
 240 516 l 2
 226.700195312 516 216 526.700195312 216 540 c 0
 216 553.299804688 226.700195312 564 240 564 c 2
 324 564 l 1
 324 384 l 1
 360 384 l 2
 373.299804688 384 384 373.299804688 384 360 c 0
 384 346.700195312 373.299804688 336 360 336 c 2
 324 336 l 1
 324 300 l 2
 324 286.700195312 313.299804688 276 300 276 c 0
 286.700195312 276 276 286.700195312 276 300 c 2
 276 336 l 1
163 463 m 2
 153.700195312 472.400390625 153.700195312 487.599609375 163.099609375 496.900390625 c 0
 172.400390625 506.299804688 187.599609375 506.299804688 197 496.900390625 c 2
 257 436.900390625 l 2
 266.400390625 427.599609375 266.400390625 412.400390625 257 403 c 0
 252.299804688 398.299804688 246.200195312 396 240 396 c 0
 233.799804688 396 227.700195312 398.299804688 223 403 c 2
 163 463 l 2
660 684 m 2
 673.299804688 684 684 673.299804688 684 660 c 0
 684 646.700195312 673.299804688 636 660 636 c 2
 600 636 l 2
 580.099609375 636 564 619.900390625 564 600 c 2
 564 564 l 1
 624 564 l 1
 624 480 l 2
 624 423.599609375 601 372.599609375 564 335.599609375 c 1
 564 300 l 2
 564 280.099609375 580.099609375 264 600 264 c 0
 613.299804688 264 624 253.299804688 624 240 c 0
 624 226.700195312 613.299804688 216 600 216 c 0
 553.700195312 216 516 253.700195312 516 300 c 1
 516 300 l 1
 487.400390625 284.700195312 454.700195312 276 420 276 c 0
 406.700195312 276 396 286.700195312 396 300 c 0
 396 313.299804688 406.700195312 324 420 324 c 0
 456.200195312 324 489.5 336.400390625 516 357.099609375 c 1
 516 360 l 2
 516 379.900390625 499.900390625 396 480 396 c 2
 420 396 l 2
 406.700195312 396 396 406.700195312 396 420 c 0
 396 433.299804688 406.700195312 444 420 444 c 2
 480 444 l 2
 511.900390625 444 539.700195312 426.200195312 553.900390625 400 c 1
 567.900390625 423.400390625 576 450.799804688 576 480 c 2
 576 516 l 1
 420 516 l 2
 406.700195312 516 396 526.700195312 396 540 c 0
 396 553.299804688 406.700195312 564 420 564 c 2
 516 564 l 1
 516 600 l 2
 516 646.299804688 553.700195312 684 600 684 c 2
 660 684 l 2
EndSplineSet
EndChar

StartChar: uni8BED
Encoding: 35821 35821 4
Width: 720
Flags: HW
LayerCount: 2
Fore
SplineSet
120 636 m 2
 106.700195312 636 96 646.700195312 96 660 c 0
 96 673.299804688 106.700195312 684 120 684 c 2
 240 684 l 2
 253.299804688 684 264 673.299804688 264 660 c 0
 264 646.700195312 253.299804688 636 240 636 c 2
 120 636 l 2
300 564 m 2
 313.299804688 564 324 553.299804688 324 540 c 0
 324 526.700195312 313.299804688 516 300 516 c 2
 60 516 l 2
 46.7001953125 516 36 526.700195312 36 540 c 0
 36 553.299804688 46.7001953125 564 60 564 c 2
 300 564 l 2
300 444 m 2
 313.299804688 444 324 433.299804688 324 420 c 0
 324 406.700195312 313.299804688 396 300 396 c 2
 60 396 l 2
 46.7001953125 396 36 406.700195312 36 420 c 0
 36 433.299804688 46.7001953125 444 60 444 c 2
 300 444 l 2
300 324 m 2
 313.299804688 324 324 313.299804688 324 300 c 0
 324 286.700195312 313.299804688 276 300 276 c 2
 60 276 l 2
 46.7001953125 276 36 286.700195312 36 300 c 0
 36 313.299804688 46.7001953125 324 60 324 c 2
 300 324 l 2
660 324 m 2
 673.299804688 324 684 313.299804688 684 300 c 0
 684 286.700195312 673.299804688 276 660 276 c 2
 420 276 l 2
 406.700195312 276 396 286.700195312 396 300 c 0
 396 313.299804688 406.700195312 324 420 324 c 2
 456 324 l 1
 456 516 l 1
 420 516 l 2
 406.700195312 516 396 526.700195312 396 540 c 0
 396 553.299804688 406.700195312 564 420 564 c 2
 456 564 l 1
 456 636 l 1
 420 636 l 2
 406.700195312 636 396 646.700195312 396 660 c 0
 396 673.299804688 406.700195312 684 420 684 c 2
 660 684 l 2
 673.299804688 684 684 673.299804688 684 660 c 0
 684 646.700195312 673.299804688 636 660 636 c 2
 504 636 l 1
 504 564 l 1
 540 564 l 2
 586.299804688 564 624 526.299804688 624 480 c 2
 624 324 l 1
 660 324 l 2
504 516 m 1
 504 324 l 1
 576 324 l 1
 576 480 l 2
 576 499.900390625 559.900390625 516 540 516 c 2
 504 516 l 1
240 204 m 0
 253.299804688 204 264 193.299804688 264 180 c 2
 264 -60 l 2
 264 -106.299804688 226.299804688 -144 180 -144 c 0
 133.700195312 -144 96 -106.299804688 96 -60 c 2
 96 180 l 2
 96 193.299804688 106.700195312 204 120 204 c 0
 133.299804688 204 144 193.299804688 144 180 c 2
 144 144 l 1
 216 144 l 1
 216 180 l 2
 216 193.299804688 226.700195312 204 240 204 c 0
180 -96 m 0
 199.900390625 -96 216 -79.900390625 216 -60 c 2
 216 96 l 1
 144 96 l 1
 144 -60 l 2
 144 -79.900390625 160.099609375 -96 180 -96 c 0
660 204 m 0
 673.299804688 204 684 193.299804688 684 180 c 2
 684 -60 l 2
 684 -106.299804688 646.299804688 -144 600 -144 c 2
 480 -144 l 2
 433.700195312 -144 396 -106.299804688 396 -60 c 2
 396 180 l 2
 396 193.299804688 406.700195312 204 420 204 c 0
 433.299804688 204 444 193.299804688 444 180 c 2
 444 144 l 1
 636 144 l 1
 636 180 l 2
 636 193.299804688 646.700195312 204 660 204 c 0
600 -96 m 2
 619.900390625 -96 636 -79.900390625 636 -60 c 2
 636 96 l 1
 444 96 l 1
 444 -60 l 2
 444 -79.900390625 460.099609375 -96 480 -96 c 2
 600 -96 l 2
EndSplineSet
EndChar

StartChar: comma
Encoding: 44 44 5
Width: 360
Flags: HW
LayerCount: 2
Fore
SplineSet
190.700195312 21.5 m 0
 202.599609375 15.5 207.400390625 1.099609375 201.400390625 -10.599609375 c 2
 141.400390625 -130.599609375 l 2
 137.200195312 -139 128.700195312 -143.900390625 119.900390625 -143.900390625 c 0
 116.299804688 -143.900390625 112.599609375 -143.099609375 109.200195312 -141.400390625 c 0
 97.400390625 -135.5 92.599609375 -121.099609375 98.5 -109.200195312 c 2
 158.5 10.7998046875 l 2
 164.400390625 22.599609375 178.799804688 27.400390625 190.700195312 21.5 c 0
EndSplineSet
EndChar

StartChar: period
Encoding: 46 46 6
Width: 360
Flags: HW
LayerCount: 2
Fore
SplineSet
120 -36 m 0
 133.299804688 -36 144 -46.7001953125 144 -60 c 2
 144 -120 l 2
 144 -133.299804688 133.299804688 -144 120 -144 c 0
 106.700195312 -144 96 -133.299804688 96 -120 c 2
 96 -60 l 2
 96 -46.7001953125 106.700195312 -36 120 -36 c 0
EndSplineSet
EndChar

StartChar: uni3002
Encoding: 12290 12290 7
Width: 720
Flags: HW
LayerCount: 2
Fore
SplineSet
180 24 m 0
 226.299804688 24 264 -13.7001953125 264 -60 c 0
 264 -106.299804688 226.299804688 -144 180 -144 c 0
 133.700195312 -144 96 -106.299804688 96 -60 c 0
 96 -13.7001953125 133.700195312 24 180 24 c 0
180 -96 m 0
 199.900390625 -96 216 -79.900390625 216 -60 c 0
 216 -40.099609375 199.900390625 -24 180 -24 c 0
 160.099609375 -24 144 -40.099609375 144 -60 c 0
 144 -79.900390625 160.099609375 -96 180 -96 c 0
EndSplineSet
EndChar

StartChar: uniFF0C
Encoding: 65292 65292 8
Width: 720
Flags: HW
LayerCount: 2
Fore
SplineSet
240 24 m 0
 253.299804688 24 264 13.2998046875 264 0 c 2
 264 -60 l 2
 264 -106.299804688 226.299804688 -144 180 -144 c 0
 166.700195312 -144 156 -133.299804688 156 -120 c 0
 156 -106.700195312 166.700195312 -96 180 -96 c 0
 199.900390625 -96 216 -79.900390625 216 -60 c 2
 216 0 l 2
 216 13.2998046875 226.700195312 24 240 24 c 0
EndSplineSet
EndChar

StartChar: exclam
Encoding: 33 33 9
Width: 360
Flags: HW
LayerCount: 2
Fore
SplineSet
120 -36 m 0
 133.299804688 -36 144 -46.7001953125 144 -60 c 2
 144 -120 l 2
 144 -133.299804688 133.299804688 -144 120 -144 c 0
 106.700195312 -144 96 -133.299804688 96 -120 c 2
 96 -60 l 2
 96 -46.7001953125 106.700195312 -36 120 -36 c 0
120 504 m 0
 133.299804688 504 144 493.299804688 144 480 c 2
 144 60 l 2
 144 46.7001953125 133.299804688 36 120 36 c 0
 106.700195312 36 96 46.7001953125 96 60 c 2
 96 480 l 2
 96 493.299804688 106.700195312 504 120 504 c 0
EndSplineSet
EndChar

StartChar: quotedbl
Encoding: 34 34 10
Width: 360
Flags: HW
LayerCount: 2
Fore
SplineSet
120 504 m 0
 133.299804688 504 144 493.299804688 144 480 c 2
 144 360 l 2
 144 346.700195312 133.299804688 336 120 336 c 0
 106.700195312 336 96 346.700195312 96 360 c 2
 96 480 l 2
 96 493.299804688 106.700195312 504 120 504 c 0
240 504 m 0
 253.299804688 504 264 493.299804688 264 480 c 2
 264 360 l 2
 264 346.700195312 253.299804688 336 240 336 c 0
 226.700195312 336 216 346.700195312 216 360 c 2
 216 480 l 2
 216 493.299804688 226.700195312 504 240 504 c 0
EndSplineSet
EndChar

StartChar: uniFF01
Encoding: 65281 65281 11
Width: 720
Flags: HW
LayerCount: 2
Fore
SplineSet
180 -36 m 0
 193.299804688 -36 204 -46.7001953125 204 -60 c 2
 204 -120 l 2
 204 -133.299804688 193.299804688 -144 180 -144 c 0
 166.700195312 -144 156 -133.299804688 156 -120 c 2
 156 -60 l 2
 156 -46.7001953125 166.700195312 -36 180 -36 c 0
180 504 m 0
 193.299804688 504 204 493.299804688 204 480 c 2
 204 60 l 2
 204 46.7001953125 193.299804688 36 180 36 c 0
 166.700195312 36 156 46.7001953125 156 60 c 2
 156 480 l 2
 156 493.299804688 166.700195312 504 180 504 c 0
EndSplineSet
EndChar

StartChar: numbersign
Encoding: 35 35 12
Width: 360
Flags: HW
LayerCount: 2
Fore
SplineSet
300 144 m 2
 313.299804688 144 324 133.299804688 324 120 c 0
 324 106.700195312 313.299804688 96 300 96 c 2
 264 96 l 1
 264 0 l 2
 264 -13.2998046875 253.299804688 -24 240 -24 c 0
 226.700195312 -24 216 -13.2998046875 216 0 c 2
 216 96 l 1
 144 96 l 1
 144 0 l 2
 144 -13.2998046875 133.299804688 -24 120 -24 c 0
 106.700195312 -24 96 -13.2998046875 96 0 c 2
 96 96 l 1
 60 96 l 2
 46.7001953125 96 36 106.700195312 36 120 c 0
 36 133.299804688 46.7001953125 144 60 144 c 2
 96 144 l 1
 96 276 l 1
 60 276 l 2
 46.7001953125 276 36 286.700195312 36 300 c 0
 36 313.299804688 46.7001953125 324 60 324 c 2
 96 324 l 1
 96 420 l 2
 96 433.299804688 106.700195312 444 120 444 c 0
 133.299804688 444 144 433.299804688 144 420 c 2
 144 324 l 1
 216 324 l 1
 216 420 l 2
 216 433.299804688 226.700195312 444 240 444 c 0
 253.299804688 444 264 433.299804688 264 420 c 2
 264 324 l 1
 300 324 l 2
 313.299804688 324 324 313.299804688 324 300 c 0
 324 286.700195312 313.299804688 276 300 276 c 2
 264 276 l 1
 264 144 l 1
 300 144 l 2
144 144 m 1
 216 144 l 1
 216 276 l 1
 144 276 l 1
 144 144 l 1
EndSplineSet
EndChar

StartChar: dollar
Encoding: 36 36 13
Width: 360
Flags: HW
LayerCount: 2
Fore
SplineSet
204 202 m 1
 272 190.5 324 131.200195312 324 60 c 0
 324 -11.2001953125 272 -70.5 204 -82 c 1
 204 -120 l 2
 204 -133.299804688 193.299804688 -144 180 -144 c 0
 166.700195312 -144 156 -133.299804688 156 -120 c 2
 156 -82 l 1
 88 -70.5 36 -11.2001953125 36 60 c 0
 36 73.2998046875 46.7001953125 84 60 84 c 0
 73.2998046875 84 84 73.2998046875 84 60 c 0
 84 15.2998046875 114.599609375 -22.2998046875 156 -33 c 1
 156 158 l 1
 88 169.5 36 228.799804688 36 300 c 0
 36 371.200195312 88 430.5 156 442 c 1
 156 480 l 2
 156 493.299804688 166.700195312 504 180 504 c 0
 193.299804688 504 204 493.299804688 204 480 c 2
 204 442 l 1
 272 430.5 324 371.200195312 324 300 c 0
 324 286.700195312 313.299804688 276 300 276 c 0
 286.700195312 276 276 286.700195312 276 300 c 0
 276 344.700195312 245.400390625 382.299804688 204 393 c 1
 204 202 l 1
84 300 m 0
 84 255.299804688 114.599609375 217.700195312 156 207 c 1
 156 393 l 1
 114.599609375 382.299804688 84 344.700195312 84 300 c 0
204 -33 m 1
 245.400390625 -22.2998046875 276 15.2998046875 276 60 c 0
 276 104.700195312 245.400390625 142.299804688 204 153 c 1
 204 -33 l 1
EndSplineSet
EndChar

StartChar: percent
Encoding: 37 37 14
Width: 360
Flags: HW
LayerCount: 2
Fore
SplineSet
120 216 m 0
 73.7001953125 216 36 253.700195312 36 300 c 0
 36 346.299804688 73.7001953125 384 120 384 c 0
 166.299804688 384 204 346.299804688 204 300 c 0
 204 253.700195312 166.299804688 216 120 216 c 0
120 336 m 0
 100.099609375 336 84 319.900390625 84 300 c 0
 84 280.099609375 100.099609375 264 120 264 c 0
 139.900390625 264 156 280.099609375 156 300 c 0
 156 319.900390625 139.900390625 336 120 336 c 0
240 24 m 0
 286.299804688 24 324 -13.7001953125 324 -60 c 0
 324 -106.299804688 286.299804688 -144 240 -144 c 0
 193.700195312 -144 156 -106.299804688 156 -60 c 0
 156 -13.7001953125 193.700195312 24 240 24 c 0
240 -96 m 0
 259.900390625 -96 276 -79.900390625 276 -60 c 0
 276 -40.099609375 259.900390625 -24 240 -24 c 0
 220.099609375 -24 204 -40.099609375 204 -60 c 0
 204 -79.900390625 220.099609375 -96 240 -96 c 0
313.299804688 320 m 0
 324.299804688 312.599609375 327.299804688 297.700195312 320 286.700195312 c 2
 80 -73.2998046875 l 2
 75.400390625 -80.2001953125 67.7998046875 -84 60 -84 c 0
 55.400390625 -84 50.7998046875 -82.7001953125 46.7001953125 -80 c 0
 35.599609375 -72.599609375 32.599609375 -57.7001953125 40 -46.7001953125 c 2
 280 313.299804688 l 2
 287.400390625 324.400390625 302.299804688 327.400390625 313.299804688 320 c 0
EndSplineSet
EndChar

StartChar: ampersand
Encoding: 38 38 15
Width: 360
Flags: HW
LayerCount: 2
Fore
SplineSet
322.099609375 -110.5 m 2
 327.299804688 -122.700195312 321.599609375 -136.799804688 309.400390625 -142.200195312 c 0
 306.400390625 -143.5 303.200195312 -144.099609375 300 -144.099609375 c 0
 290.700195312 -144.099609375 281.799804688 -138.599609375 277.900390625 -129.5 c 2
 250.5 -65.5 l 1
 229.700195312 -77.2998046875 205.599609375 -84 180 -84 c 0
 100.599609375 -84 36 -19.400390625 36 60 c 0
 36 124.700195312 78.900390625 179.599609375 137.700195312 197.700195312 c 1
 97.900390625 290.599609375 l 2
 92.7001953125 302.799804688 98.2998046875 316.900390625 110.5 322.099609375 c 0
 122.700195312 327.299804688 136.799804688 321.700195312 142 309.5 c 2
 187.099609375 204.299804688 l 1
 236.799804688 207.900390625 276 249.5 276 300 c 0
 276 352.900390625 232.900390625 396 180 396 c 2
 120 396 l 2
 106.700195312 396 96 406.700195312 96 420 c 0
 96 433.299804688 106.700195312 444 120 444 c 2
 180 444 l 2
 259.400390625 444 324 379.400390625 324 300 c 0
 324 229.700195312 273.400390625 171.099609375 206.799804688 158.5 c 1
 266.700195312 18.7001953125 l 1
 272.599609375 31.2001953125 276 45.2001953125 276 60 c 2
 276 120 l 2
 276 133.299804688 286.700195312 144 300 144 c 0
 313.299804688 144 324 133.299804688 324 120 c 2
 324 60 l 2
 324 24.2001953125 310.900390625 -8.599609375 289.200195312 -33.7998046875 c 1
 322.099609375 -110.5 l 2
180 -36 m 0
 198.900390625 -36 216.599609375 -30.5 231.5 -21 c 1
 156.799804688 153.200195312 l 1
 115 142.799804688 84 104.900390625 84 60 c 0
 84 7.099609375 127.099609375 -36 180 -36 c 0
EndSplineSet
EndChar

StartChar: quotesingle
Encoding: 39 39 16
Width: 360
Flags: HW
LayerCount: 2
Fore
SplineSet
180 504 m 0
 193.299804688 504 204 493.299804688 204 480 c 2
 204 360 l 2
 204 346.700195312 193.299804688 336 180 336 c 0
 166.700195312 336 156 346.700195312 156 360 c 2
 156 480 l 2
 156 493.299804688 166.700195312 504 180 504 c 0
EndSplineSet
EndChar

StartChar: parenleft
Encoding: 40 40 17
Width: 360
Flags: HW
LayerCount: 2
Fore
SplineSet
300 -96 m 0
 313.299804688 -96 324 -106.700195312 324 -120 c 0
 324 -133.299804688 313.299804688 -144 300 -144 c 0
 187.5 -144 96 -52.5 96 60 c 2
 96 300 l 2
 96 412.5 187.5 504 300 504 c 0
 313.299804688 504 324 493.299804688 324 480 c 0
 324 466.700195312 313.299804688 456 300 456 c 0
 214 456 144 386 144 300 c 2
 144 60 l 2
 144 -26 214 -96 300 -96 c 0
EndSplineSet
EndChar

StartChar: parenright
Encoding: 41 41 18
Width: 360
Flags: HW
LayerCount: 2
Fore
SplineSet
60 504 m 0
 172.5 504 264 412.5 264 300 c 2
 264 60 l 2
 264 -52.5 172.5 -144 60 -144 c 0
 46.7001953125 -144 36 -133.299804688 36 -120 c 0
 36 -106.700195312 46.7001953125 -96 60 -96 c 0
 146 -96 216 -26 216 60 c 2
 216 300 l 2
 216 386 146 456 60 456 c 0
 46.7001953125 456 36 466.700195312 36 480 c 0
 36 493.299804688 46.7001953125 504 60 504 c 0
EndSplineSet
EndChar

StartChar: asterisk
Encoding: 42 42 19
Width: 360
Flags: HW
LayerCount: 2
Fore
SplineSet
213.900390625 240 m 1
 317 137 l 2
 326.400390625 127.700195312 326.400390625 112.5 317 103.099609375 c 0
 312.299804688 98.400390625 306.200195312 96.099609375 300 96.099609375 c 0
 293.799804688 96.099609375 287.700195312 98.400390625 283 103.099609375 c 2
 204 182.099609375 l 1
 204 60 l 2
 204 46.7001953125 193.299804688 36 180 36 c 0
 166.700195312 36 156 46.7001953125 156 60 c 2
 156 182.099609375 l 1
 77 103.099609375 l 2
 72.2998046875 98.400390625 66.2001953125 96.099609375 60 96.099609375 c 0
 53.7998046875 96.099609375 47.7001953125 98.400390625 43 103.099609375 c 0
 33.599609375 112.400390625 33.599609375 127.599609375 43 137 c 2
 146.099609375 240 l 1
 43.099609375 343 l 2
 33.7001953125 352.299804688 33.7001953125 367.5 43.099609375 376.900390625 c 0
 52.400390625 386.299804688 67.599609375 386.299804688 77 376.900390625 c 2
 156 297.900390625 l 1
 156 420 l 2
 156 433.299804688 166.700195312 444 180 444 c 0
 193.299804688 444 204 433.299804688 204 420 c 2
 204 297.900390625 l 1
 283 376.900390625 l 2
 292.299804688 386.299804688 307.5 386.299804688 316.900390625 376.900390625 c 0
 326.299804688 367.599609375 326.299804688 352.400390625 316.900390625 343 c 2
 213.900390625 240 l 1
EndSplineSet
EndChar

StartChar: plus
Encoding: 43 43 20
Width: 360
Flags: HW
LayerCount: 2
Fore
SplineSet
300 204 m 2
 313.299804688 204 324 193.299804688 324 180 c 0
 324 166.700195312 313.299804688 156 300 156 c 2
 204 156 l 1
 204 60 l 2
 204 46.7001953125 193.299804688 36 180 36 c 0
 166.700195312 36 156 46.7001953125 156 60 c 2
 156 156 l 1
 60 156 l 2
 46.7001953125 156 36 166.700195312 36 180 c 0
 36 193.299804688 46.7001953125 204 60 204 c 2
 156 204 l 1
 156 300 l 2
 156 313.299804688 166.700195312 324 180 324 c 0
 193.299804688 324 204 313.299804688 204 300 c 2
 204 204 l 1
 300 204 l 2
EndSplineSet
EndChar
